<?xml version="1.0" encoding="UTF-8"?> <svg xmlns="http://www.w3.org/2000/svg" width="24" height="24" viewBox="0 0 24 24"><path d="M19.545 3C20.9 3 22 4.1 22 5.455V18.28c0 1.356-1.1 2.455-2.455 2.455H5.68a2.456 2.456 0 01-2.37-1.814l-1.123-4.15a5.401 5.401 0 011.624-5.447l3.902-3.47A11.302 11.302 0 0115.22 3zm0 .982h-4.326a10.31 10.31 0 00-6.852 2.606l-3.902 3.47a4.422 4.422 0 00-1.33 4.457l1.124 4.15a1.474 1.474 0 001.422 1.088h13.864c.813 0 1.473-.66 1.473-1.473V5.455c0-.813-.66-1.473-1.473-1.473zm-.156 8.174a.577.577 0 010 1.156h-2.502a.577.577 0 010-1.156h2.502zm-.405-6.932c.543 0 .982.44.982.982v4.926H5.11l5.52-4.727a4.909 4.909 0 013.194-1.18h5.161z" fill="#4AA0E7"></path></svg> 