<?xml version="1.0" encoding="UTF-8"?> <svg xmlns="http://www.w3.org/2000/svg" width="24" height="24" viewBox="0 0 24 24"><path d="M8.486 20.977c1.018-1.018 2.086-3.416 2.877-4.358l1.792 1.8c.656.665 1.447.665 2.086.026l1.085-1.094c.514-.522.614-1.11.303-1.666l3.575-3.575c.934-.934.917-2.053-.042-3.012L13.56 2.486c-.884-.883-2.415-.538-2.726.833-.681 2.97-.8 3.651-1.674 4.98-.505-.218-1.043-.092-1.514.37L6.56 9.763c-.64.64-.648 1.422.016 2.086l1.8 1.792c-.933.79-3.33 1.85-4.349 2.869-1.38 1.38-1.37 3.028.034 4.425 1.405 1.405 3.045 1.421 4.425.042zm7.251-6.276l-5.526-5.527c.992-1.489 1.169-2.549 1.876-5.157.109-.429.462-.538.748-.26l3.92 3.911c-.202 1.397-.95 2.423-1.85 3.323-.11.11-.101.244-.026.32.43.429 2.726-.825 3.651-1.868l.606.606c.387.387.387.858.025 1.22L15.737 14.7zM4.953 20.043c-.825-.833-.833-1.817-.017-2.625 1.338-1.329 4.105-2.481 4.753-3.138.336-.361.379-.765.067-1.068L7.73 11.193c-.219-.219-.219-.463 0-.681l.681-.665c.219-.219.455-.227.673-.008l6.082 6.073c.21.22.21.455-.016.682l-.657.664c-.218.236-.47.244-.69.009l-2.01-2.02c-.311-.31-.715-.277-1.068.068-.656.648-1.809 3.416-3.147 4.745-.807.816-1.783.816-2.624-.017zm1.287-.227c.572 0 1.035-.471 1.035-1.043s-.463-1.035-1.035-1.035c-.572 0-1.043.463-1.043 1.035 0 .572.47 1.043 1.043 1.043z" fill="#4AA0E7"></path></svg> 