<?xml version="1.0" encoding="UTF-8"?> <svg xmlns="http://www.w3.org/2000/svg" width="16" height="16" viewBox="0 0 16 16"><path d="M2.747 13.132c.208 0 .384-.07.527-.212a.707.707 0 00.215-.524v-.955l.097.007c.418.027.878.05 1.381.067.503.018 1.015.033 1.537.044a65.155 65.155 0 002.992 0c.522-.011 1.034-.026 1.537-.044.503-.017.963-.04 1.381-.067l.096-.007.001.955c0 .208.072.383.215.524.143.141.32.212.527.212h.666a.73.73 0 00.53-.212.703.703 0 00.218-.524V9.128c0-.319-.024-.599-.071-.84a2.747 2.747 0 00-.224-.677 3.83 3.83 0 00-.412-.651l-.483-.618a11.53 11.53 0 00-.244-.99 15.787 15.787 0 00-.286-.877 9.304 9.304 0 00-.236-.601 1.857 1.857 0 00-.656-.766 2.41 2.41 0 00-.993-.365 9.332 9.332 0 00-.644-.041c-.297-.012-.652-.02-1.066-.026a93.132 93.132 0 00-2.707 0c-.416.005-.771.014-1.065.026a9.993 9.993 0 00-.642.041 2.236 2.236 0 00-.993.36 1.89 1.89 0 00-.656.771 9.722 9.722 0 00-.236.6c-.094.26-.19.552-.286.878a11.53 11.53 0 00-.244.99l-.483.618c-.173.224-.31.44-.412.65-.102.21-.177.437-.224.678-.047.241-.07.521-.07.84v3.268a.732.732 0 00.747.736h.666zm9.264-6.973l-.987-.05c-.36-.018-.784-.032-1.275-.044A72.89 72.89 0 008 6.047c-.68 0-1.263.006-1.752.018-.489.012-.913.026-1.272.044l-.987.05c-.117.008-.199-.014-.244-.065-.045-.05-.056-.131-.032-.241a9.7 9.7 0 01.371-1.216c.07-.187.133-.333.188-.44a.9.9 0 01.265-.305.875.875 0 01.389-.13c.208-.031.558-.055 1.051-.07A65.982 65.982 0 018 3.668c.856 0 1.531.007 2.026.02.495.014.842.039 1.042.074a.94.94 0 01.392.133.932.932 0 01.268.303c.059.102.123.246.191.433.069.186.136.387.2.603.065.216.12.422.163.619.03.11.023.19-.024.241-.047.051-.13.073-.247.065zM3.948 10.04a.887.887 0 01-.656-.262.884.884 0 01-.263-.65c0-.26.088-.477.263-.652a.89.89 0 01.656-.262c.26 0 .476.088.65.262a.88.88 0 01.263.651c0 .26-.087.476-.262.651a.883.883 0 01-.65.262zm8.104 0a.878.878 0 01-.65-.262.88.88 0 01-.263-.65c0-.26.087-.477.262-.652a.887.887 0 01.65-.262c.264 0 .483.088.657.262a.884.884 0 01.263.651c0 .26-.088.476-.263.651a.887.887 0 01-.656.262zM9.49 9.816H6.51c-.196 0-.355-.06-.477-.182s-.183-.281-.183-.477c0-.197.061-.356.183-.477a.644.644 0 01.477-.183h2.98c.196 0 .355.06.477.183.122.121.183.28.183.477a.645.645 0 01-.183.477.647.647 0 01-.477.182z" fill="#4AA0E7"></path></svg> 