<?xml version="1.0" encoding="UTF-8"?> <svg xmlns="http://www.w3.org/2000/svg" width="24" height="24" viewBox="0 0 24 24"><path d="M7 4a.82.82 0 01.804.98L5.16 18.197a1 1 0 01-.98.804H4a.82.82 0 01-.804-.98L5.84 4.803a1 1 0 01.98-.804H7zm10.18 0c.477 0 .887.336.98.804l2.644 13.215A.82.82 0 0120 19h-.18a.998.998 0 01-.98-.804L16.195 4.981A.82.82 0 0116.999 4zM12 14a1 1 0 011 1v2a1 1 0 01-2 0v-2a1 1 0 011-1zm0-6a1 1 0 011 1v3a1 1 0 01-2 0V9a1 1 0 011-1zm0-4a1 1 0 011 1v1a1 1 0 01-2 0V5a1 1 0 011-1z" fill="#4AA0E7"></path></svg> 