<?xml version="1.0" encoding="UTF-8"?> <svg xmlns="http://www.w3.org/2000/svg" width="24" height="24" viewBox="0 0 24 24"><path d="M13.502 5a.525.525 0 01.095 1.04l-.095.008h-.618v1.249h1.743c.156 0 .306.05.43.14l.089.076.92.92h.994c.371 0 .679.276.727.634l.007.1v1.487h.72V9.71c0-.372.276-.679.635-.727l.1-.007h1.179c.868 0 1.572.704 1.572 1.572v5.534c0 .869-.704 1.573-1.572 1.573h-1.914v-1.582h-.72v1.406a.733.733 0 01-.634.727l-.1.007h-6.061a.732.732 0 01-.431-.14l-2.756-2H5.154a.734.734 0 01-.727-.634l-.007-.1v-2.591H3.048v1.433a.523.523 0 01-1.04.094L2 14.181v-3.912a.525.525 0 011.04-.095l.008.095V11.7H4.42V9.167c0-.372.276-.679.635-.728l.1-.006H6.63l.921-.92a.735.735 0 01.403-.206l.116-.01h1.699V6.048h-.752a.523.523 0 01-.094-1.04L9.017 5h4.485zm.995 3.346H8.199l-.919.92a.731.731 0 01-.403.206l-.116.01-1.293-.001v5.544h2.447a.74.74 0 01.333.08l.098.06 2.754 2h5.645v-1.406c0-.371.277-.678.635-.727l.1-.007h1.349c.405 0 .734.329.734.734l-.001.846.866.001c.257 0 .47-.185.515-.43l.009-.094v-5.534a.524.524 0 00-.524-.524h-.866v.945a.733.733 0 01-.733.733h-1.35a.734.734 0 01-.734-.733V9.48h-.81a.734.734 0 01-.43-.14l-.088-.075-.92-.92zm-2.662-1.049V6.048h-1.017v1.249h1.017z" fill="#4AA0E7"></path></svg> 