<?xml version="1.0" encoding="UTF-8"?> <svg xmlns="http://www.w3.org/2000/svg" width="24" height="24" viewBox="0 0 24 24"><path d="M13 2a2 2 0 012 2v6.638h.119a1.5 1.5 0 011.493 1.356l.007.144v6.204c0 .186.15.338.338.338a.347.347 0 00.339-.274l.007-.07.086-8.8a.743.743 0 01-.22-.434L17.163 9v-.6a.75.75 0 01.241-.552l.006-.416-.266-.299.22-.197-.685-.722.29-.275.694.731.227-.202.396.444c.062.07.103.155.119.245l.008.092-.005.587a.754.754 0 01.248.462l.007.101V9c0 .233-.106.44-.272.578l-.088 8.769a1.346 1.346 0 01-1.346 1.333c-.696 0-1.268-.53-1.332-1.21l-.006-.128v-6.204a.5.5 0 00-.41-.492l-.09-.008H15V19a2 2 0 01-2 2H7a2 2 0 01-2-2V4a2 2 0 012-2h6zm-2.694 9.954H7.977c-.464 0-.737.283-.737.767v5.508c0 .488.273.771.737.771h2.383c1.504 0 2.437-.776 2.437-2.017 0-.932-.703-1.63-1.66-1.704v-.039a1.554 1.554 0 001.323-1.528c0-1.08-.83-1.758-2.154-1.758zm-.356 3.901c.87 0 1.343.352 1.343 1.011 0 .674-.46 1.035-1.309 1.035h-1.27v-2.046H9.95zm-.024-2.802c.688 0 1.084.322 1.084.888 0 .596-.45.943-1.236.943h-1.06v-1.831h1.212zM14 7H6v1a2 2 0 002 2h4a2 2 0 002-2V7zm-2-4H8a2 2 0 00-2 2v1h8V5a2 2 0 00-2-2z" fill="#4AA0E7"></path></svg> 