<?xml version="1.0" encoding="UTF-8"?> <svg xmlns="http://www.w3.org/2000/svg" width="24" height="24" viewBox="0 0 24 24"><g fill="#4AA0E7"><rect width="4" height="7" x="3" y="15" rx="1"></rect><path d="M4.754 2h1.92a1 1 0 01.962 1.275l-1.429 5A1 1 0 015.246 9h-1.92a1 1 0 01-.962-1.275l1.429-5A1 1 0 014.754 2z"></path><rect width="4" height="7" x="17" y="15" rx="1"></rect><path d="M18.754 2h1.92a1 1 0 01.962 1.275l-1.429 5a1 1 0 01-.961.725h-1.92a1 1 0 01-.962-1.275l1.429-5A1 1 0 0118.754 2zM11.25 5h1.5v14h-1.5z"></path><path d="M7 17.5h10V19H7zm-2-13h14V6H5z"></path><circle cx="12" cy="5" r="1.5"></circle></g></svg> 