<?xml version="1.0" encoding="UTF-8"?> <svg xmlns="http://www.w3.org/2000/svg" width="24" height="24" viewBox="0 0 24 24"><path d="M14 4.281c0-1.842 2-1.569 2 0V5h2a3 3 0 012.995 2.824L21 8v11a3 3 0 01-3 3H6a3 3 0 01-3-3V8a3 3 0 013-3l1.999-.001L8 4.281c0-1.786 1.88-1.583 1.995-.139l.005.14-.001.717H14zM19 13H5v6a1 1 0 00.883.993L6 20h12a1 1 0 001-1v-6.001zM7.999 7H6a1 1 0 00-1 1v2.999h14V8a1 1 0 00-.883-.993L18 7l-2-.001v.619c0 1.787-1.88 1.841-1.995.162L14 7.618v-.619H9.999l.001.619c0 1.787-1.88 1.841-1.995.162L8 7.618l-.001-.619z" fill="#4AA0E7"></path></svg> 