<?xml version="1.0" encoding="UTF-8"?> <svg xmlns="http://www.w3.org/2000/svg" width="24" height="24" viewBox="0 0 24 24"><path d="M20.255 8.847c.488 0 .745-.276.745-.754V5.841C21 3.947 20.035 3 18.113 3h-2.252c-.478 0-.745.257-.745.735s.267.745.745.745h2.225c.91 0 1.434.487 1.434 1.443v2.17c0 .478.267.754.735.754zm-16.52 0c.488 0 .745-.276.745-.754v-2.17c0-.956.506-1.443 1.425-1.443H8.13c.487 0 .754-.267.754-.745S8.617 3 8.13 3H5.887C3.965 3 3 3.947 3 5.84v2.253c0 .478.267.754.735.754zM8.13 20.99c.487 0 .754-.267.754-.736 0-.478-.267-.744-.754-.744H5.905c-.92 0-1.425-.488-1.425-1.444v-2.17c0-.486-.267-.753-.745-.753S3 15.411 3 15.898v2.243c0 1.903.965 2.85 2.887 2.85H8.13zm12.125-5.847c.478 0 .745.267.745.754v2.243c0 1.894-.965 2.85-2.887 2.85h-2.252c-.478 0-.745-.267-.745-.736 0-.478.267-.744.745-.744h2.225c.91 0 1.434-.488 1.434-1.444v-2.17c0-.486.257-.753.735-.753zM16.59 11.19a.81.81 0 010 1.62H7.41a.81.81 0 010-1.62h9.18z" fill="#4AA0E7"></path></svg> 